<?xml version="1.0" encoding="UTF-8"?>
<svg version="1.1" viewBox="0 0 1440 1608" width="360" height="402" xmlns="http://www.w3.org/2000/svg">
<path transform="translate(0)" d="m0 0h1440v1608h-1440z" fill="#F9F9F9"/>
<path transform="translate(695,120)" d="m0 0h55l29 2 29 4 19 3 18 4 25 6 16 5 30 11 20 9 28 14 17 10 17 11 10 7 17 12 11 9 10 9 11 9 28 28 7 8 10 11 13 17 13 18 10 15 15 25 14 27 8 17 11 28 12 36 7 28 6 33 4 34 1 10v56l-4 40-6 35-10 40-9 27-11 27-8 18-10 20-9 16-13 21-20 28-10 13-9 10-9 11-7 7-7 8-11 11-8 7-10 9-11 9-17 13-17 12-15 10-22 13-29 15-20 9-29 11-21 7-30 8-31 6-29 4-25 2h-54l-35-3-31-5-32-7-29-9-28-10-20-8-16-8-25-13-17-10-17-11-19-13-12-10-10-8-10-9-8-7-15-14-7-7-7-8-12-13-11-14-8-10-12-17-10-15-9-15-12-22-8-16-10-22-11-30-8-25-7-28-6-31-3-24-1-13v-67l4-35 6-35 6-25 4-14h2v-8l2-3 3-4 1-4 9-24 9-21 18-36 11-18 11-17 10-14 8-11 11-13 8-10 12-13 7-8 16-16 8-7 14-12 14-11 20-15 17-11 15-9 16-9 17-9 29-13 30-11 30-9 25-6 27-5 33-4z" fill="#F9F9F9"/>
<path transform="translate(695,120)" d="m0 0h55l29 2 29 4 19 3 18 4 25 6 16 5 30 11 20 9 28 14 17 10 17 11 10 7 17 12 11 9 10 9 11 9 28 28 7 8 10 11 13 17 13 18 10 15 15 25 14 27 8 17 11 28 12 36 7 28 6 33 4 34 1 10v56l-4 40-6 35-10 40-9 27-11 27-8 18-10 20-9 16-13 21-20 28-10 13-9 10-9 11-7 7-7 8-11 11-8 7-10 9-11 9-17 13-17 12-15 10-22 13-29 15-20 9-29 11-21 7-30 8-31 6-29 4-25 2h-54l-35-3-31-5-32-7-29-9-28-10-20-8-16-8-25-13-17-10-17-11-19-13-12-10-10-8-10-9-8-7-15-14-7-7-7-8-12-13-11-14-8-10-12-17-10-15-9-15-12-22-8-16-10-22-11-30-8-25-7-28-6-31-3-24-1-13v-67l4-35 6-35 6-25 4-14h2v-8l2-3 3-4 1-4 9-24 9-21 18-36 11-18 11-17 10-14 8-11 11-13 8-10 12-13 7-8 16-16 8-7 14-12 14-11 20-15 17-11 15-9 16-9 17-9 29-13 30-11 30-9 25-6 27-5 33-4zm12 58-29 2-28 4-29 6-22 6-34 12-25 11-16 8-18 10-19 12-17 12-13 10-11 9-13 12-12 11-12 12-9 11-9 10-12 16-13 18-12 20-10 17-11 23-9 21-12 36-9 38-3 16-3 24-1 16v54l3 29 5 29 6 25 7 24 9 25 11 25 10 19 6 11 11 18 14 20 14 18 12 14 12 13 15 15h2v2l11 9 10 9 14 11 18 13 21 13 19 11 23 11 18 8 39 15 14 4 10 3 25 5 27 4 25 2h43l32-3 29-5 30-7 26-8 29-11 33-16 20-11 24-16 14-10 22-18 13-12 23-23 7-8 11-13 12-16 9-13 12-19 12-22 13-29 9-24 7-23 9-41 4-24 3-27 1-15v-38l-3-29-6-36-7-30-8-26-12-31-11-24-14-25-11-18-14-19-11-14-11-13-11-12-24-24-11-9-12-10-16-12-15-10-15-9-21-12-23-11-28-11-21-7-26-7-31-6-23-3-25-2z" fill="#080201"/>
<path transform="translate(682,311)" d="m0 0 2 1-9 8-11 8-9 8-9 11-9 13-8 16-4 14-1 9 1 23 3 11 6 12 5 6-1 3 7 1h9l5-4 2-3 3 1v299l4 10 11 12 10 7 8 5 4 1h13l10-2 13-5 16-8 18-12 11-9-1-5-1-1-1-250-5-17-8-16-7-10-11-11-3-2v-2l21 3 24 2 7 3 5 7 6-3 15-15 11-9 8-7 18-13 17-11 18-10 22-11 28-11 26-8 11-4 8-6h2l-2 5-9 10-11 14-12 15-13 17-12 16-12 17-10 15-5 9-1 4-2 42v108l2 106 1 22 1 11 4 2 8 5 5 3v2l20-1 13-4 17-8 16-10 18-14 10-10 10-13 7-9 2-1-2 6-8 16-17 28-12 18-8 11-10 13-7 9-12 14-12 13-7 8-17 16-11 9-11 10-14 10-17 12-10 6-5-2-8-8-10-8-15-13-10-8-13-11-6-5-4 1-9 9-7 8-3 4h-2l-2 4-17 17-7 8-11 11-7 8-4 4-12-1-29-5-30-7-23-7-30-11-20-9-22-12-18-12-13-10-13-12-17-17-2-5 9 2 4 1h18l10-4 6-7 1-3v-250l-4-11-4-5-10-5-4-1h-8l-14 3-17 9-16 12-13 12-23 23-9 11-11 13-15 20-11 16-13 21-10 18-8 14-3 1-1-5 3-39 5-26 4-9 5-14 5-11 10-21 9-15 8-13 9-14 10-13 8-10 9-10 9-11 16-17 12-13 17-17 8-7 16-15 10-9 14-11 13-10 13-9 18-12 15-9 23-12 25-11 20-8 18-10z" fill="#070201"/>
<path transform="translate(559,1212)" d="m0 0h137l21 1 10 3 6 4 7 14 2 14v23l-3 12-5 8-4 5-12 6v3l10 1 6 3 4 5 3 8 1 41-1 1h-46l-1-26-4-9-6-4-7-2-15-1-61-1v43l-6 1h-22l-18-1v-110l1-41z" fill="#090302"/>
<path transform="translate(520,1208)" d="m0 0 3 1v154l-1 1-41 1h-19l-10-1-9-11-12-16-13-16-13-17-14-18-8-10-11-14-9-12-2-1v115l-6 1h-24l-16-1v-130l1-21 3-1 61-1 4-2 4 1 8 9 10 14 13 16 8 11 11 14 20 26 12 15 6 12h3v-7l-3-1v-56l1-51 39-1z" fill="#080302"/>
<path transform="translate(1093,1209)" d="m0 0 5 1 3 5 14 26 12 22 15 27 12 23 13 23 14 26v2l-38 1-12-1-6-10-8-16-1-1h-97l-3 5-10 20-2 2-48 1-1-3 3-3 5-3 7-12 8-16 10-18 8-15 8-14 5-9 10-19 16-29 6-11 3-1 48-1z" fill="#090402"/>
<path transform="translate(938,1208)" d="m0 0 4 1-1 33-2 1h-121l1 30h109l2-4 5 1v29l-2 3h-115l1 31h116l4-2 2-3h3v36l-130 1h-31l-11-1v-65l1-87h163z" fill="#0A0403"/>
<path transform="translate(281,1208)" d="m0 0h2l1 2-1 116-4 14-5 8-9 8-13 5-12 3-21 2-17 1h-29l-39-3-17-4-12-6-9-9-4-8-2-8v-117l32-1 10-1 4-1 1 99 2 8 6 9 8 5 7 2 8 1h47l12-3 6-4 3-4 1-109 1-1 40-2z" fill="#080302"/>
<path transform="translate(1242,1209)" d="m0 0h3l1 117 1 5 3 1 95-1 3-2 4 1v12l-1 21-1 1h-151v-93l1-58 1-1 38-1z" fill="#0B0504"/>
<path transform="translate(857,1415)" d="m0 0 4 2 10 13 14 18 10 13 11 14 5 10 2 1-1-10v-55l1-1 7-1h13v-2l3-2 4 1-1 90-2 1h-37l-5-3-10-13-14-18-12-15-13-17-1 2-1 63-1 1h-23l-3-1v-86l38-1z" fill="#0A0403"/>
<path transform="translate(618,1415)" d="m0 0 4 1v89l-3 2h-38l-7-7-13-17-10-13-9-11-10-13-4-5-1 64-2 2h-23l-2-1 1-86 38-1v-3l5 1 10 14 12 15 9 12 13 17 5 10 4 1-2-8-1-10v-47l1-1 20-1 1-3z" fill="#0B0605"/>
<path transform="translate(685,1418)" d="m0 0h53l9 2 4 5 3 13v9l-7 1h-19l-4-9-2-2-8-1h-33l-10 2-3 4-2 8v20l2 9 4 6 7 4 4 1h38l7-3 3-4-1-5-3-5-34-1-1-3v-7l2-2 7-1 47-1 5-5 2 1v28l-3 12-7 8-10 4-18 2h-40l-16-2-9-3-6-4-6-10-2-9-1-13v-11l2-15 4-9 4-1 1-3 7-5 10-3z" fill="#0B0504"/>
<path transform="translate(1053,1415)" d="m0 0 4 1v19l-24 1h-48l1 16 1 3h57l4-1 2-3 3 1v18l-2 1h-66l1 19 66-1 4-4h2l1 2v15l-2 4-4 1h-94l-2-1v-86l95-1z" fill="#0C0605"/>
<path transform="translate(480,1415)" d="m0 0 4 1v12l-1 7-6 1h-64l-1 19h61l4-4h3v19l-1 1h-66v19h66l3-5h3v21l-3 1h-96l-1-1v-85l1-1 56-1h36z" fill="#0C0605"/>
<path transform="translate(601,1243)" d="m0 0h77l9 2 5 4 3 6 2 15v11l-6 7-5 2-7 1h-76l-2-4z" fill="#FAFAFA"/>
<path transform="translate(796,1415)" d="m0 0 4 1-1 90-2 1h-25v-86l8-2h13l1-3z" fill="#0D0706"/>
<path transform="translate(1066,1242)" d="m0 0 4 2 27 54 5 6v3l-2 1h-22l-41-1-2-2 4-10 8-16 16-31z" fill="#FAFAFA"/>
<path transform="translate(695,120)" d="m0 0h55l29 2 29 4 19 3 18 4 25 6 16 5 30 11 20 9 28 14 17 10 17 11-4 2-10-6-14-8-9-6-10-4-7-2-16-8-17-8-36-13-19-6-32-8-36-6-27-3-14-1-52-1z" fill="#453836"/>
<path transform="translate(773,1212)" d="m0 0h163v1h-162v7l4 1 1 106v22l-1 5-4 1-1 8h8v1h-9v-65z" fill="#443836"/>
<path transform="translate(483,962)" d="m0 0 5 2 19 12 19 11 23 11 18 8 39 15 14 4 10 3 25 5 27 4 25 2 41 1v1h-45l-30-2-27-4-26-6-23-6-29-10-31-14-3-3-6-1-4-4-14-8-5-4-11-6-7-5z" fill="#463937"/>
<path transform="translate(1153,577)" d="m0 0h1l2 18 1 25 1 7-4 49-7 35-6 22-7 21-11 28-12 25-5 8-1-2 9-19 7-17 8-21 7-23 9-41 4-24 3-27 1-15z" fill="#463937"/>
<path transform="translate(477,1212)" d="m0 0h39v1l-32 1-1 85-1 25-2 5-4-1 3-1v-7l-3-1v-56z" fill="#463937"/>
<path transform="translate(1050,1419)" d="m0 0h2v2l-5 1-84-1v65 1 7l-1 4h-2l-1 7 94 1v1h-94l-2-1v-86z" fill="#463937"/>
<path transform="translate(559,1212)" d="m0 0h137l21 1 10 3-2 2-4 1-12-3-45-2h-106v92l-1 51-1 6h17v1h-18v-110l1-41z" fill="#463937"/>
<path transform="translate(542,543)" d="m0 0 2 2 1 146v96l-3 8-1-3v-69z" fill="#463937"/>
<path transform="translate(279,1209)" d="m0 0 2 1-5 3-35 1 2 3v72l-1 12-2 2-1 16-2 3v-109l1-1 40-2z" fill="#453836"/>
<path transform="translate(261,443)" d="m0 0 1 3-9 28-7 27-6 27-1 9-3 13-1 16h-1l-1 9-1 44-1 2-1 27h-1v-67l4-35 6-35 6-25 4-14h2v-8l2-3 3-4 1-4z" fill="#463937"/>
<path transform="translate(857,1415)" d="m0 0 4 2-2 1-2-1-1 4-20 1-13-1v77l-3 5v3h-3v-86l38-1z" fill="#463937"/>
<path transform="translate(478,1417)" d="m0 0 1 3-1 1-89 1-2 1 4 8v15l-2 7-1 44-1 8 95 1v1h-96l-1-1v-85l1-1 56-1h36z" fill="#463937"/>
<path transform="translate(391,549)" d="m0 0 1 2-12 23-8 17-7 19-6 23-4 22-2 13-3 9-1 7h-1v-12l2-23 5-26 4-9 5-14 5-11 10-21 9-15z" fill="#463937"/>
<path transform="translate(920,1419)" d="m0 0h13l-2 2h-10l-6 1 1 3 2 1 1 4v41l-1 11-4 6-4-1v-3l3 2-1-10v-55l1-1z" fill="#463937"/>
<path transform="translate(380,1211)" d="m0 0 3 1-2 1-64 1 1 4v108l-1 35-1 2h17l22 1v1h-24l-16-1v-130l1-21 3-1z" fill="#463937"/>
<path transform="translate(90,1212)" d="m0 0h31v1l-29 1 2 4v14l-3 97h-1z" fill="#463937"/>
<path transform="translate(595,1420)" d="m0 0h20v1l-17 1 1 5v55l-2 4-2-8-1-10v-47z" fill="#463937"/>
<path transform="translate(653,1424)" d="m0 0 2 1-7 8-4 15-2 26-1 2-1 10h-1l-2-19v-11l2-15 4-9 4-1 1-3z" fill="#453836"/>
<path transform="translate(685,1418)" d="m0 0h53l9 2 1 2h-24l-6-1h-44l-13 1 4-2z" fill="#463937"/>
<path transform="translate(745,433)" d="m0 0 21 3 24 2 7 3 3 4v2l-16-4-14-3-15-3h-7l-3-2z" fill="#453836"/>
<path transform="translate(144,1325)" d="m0 0 11 6 13 2h52l-4 2-10 1h-35l-15-1-14-4 2-2z" fill="#463937"/>
<path transform="translate(1010,1271)" d="m0 0 1 2-14 26-12 22-13 24-4 6-1-2 9-17 6-11 14-26 8-14 5-9z" fill="#463937"/>
<path transform="translate(695,120)" d="m0 0h55l29 2 21 3 2 2h-8l-21-3-26-2-52-1z" fill="#463937"/>
<path transform="translate(1102,1304)" d="m0 0 1 4-2 1-59 1-8-2 1-3 2 1 41 1h24z" fill="#463937"/>
<path transform="translate(670,1484)" d="m0 0 9 5 4 1 37 1v1l-25 1-19-1-5-2-1-4z" fill="#463937"/>
<path transform="translate(716,1302)" d="m0 0 2 3 10 1 6 3-4 1-9 1-7-1 2-4z" fill="#463937"/>
<path transform="translate(913,756)" d="m0 0 6 2 5 3v2h-8l-5-2-2-4z" fill="#4B3F3D"/>
<path transform="translate(493,803)" d="m0 0 9 2 4 1 18 1v1h-19l-8-2 2 5-5-5z" fill="#463937"/>
<path transform="translate(682,776)" d="m0 0 6 3 6 1 3 3h-9l-5-3z" fill="#463937"/>
</svg>
