<?xml version="1.0" encoding="UTF-8"?>
<svg version="1.1" viewBox="0 0 908 888" width="227" height="222" xmlns="http://www.w3.org/2000/svg">
<path transform="translate(0)" d="m0 0h908v888h-908z" fill="#1F3000"/>
<path transform="translate(269,226)" d="m0 0h62l26 2 22 4 20 6 14 6 14 8 16 12 7 6 9 11 9 14 7 14 5 16 3 16 1 9v28l-3 20-5 17-10 21-8 11-11 13-13 11-14 9-18 8-23 7-19 4-21 3h-59v123l-3 2-80-1-1-6v-385l1-7z" fill="#A4EB46"/>
<path transform="translate(653,235)" d="m0 0 3 1-2 79-1 8 60 1 1 5-1 64-1 1h-59v51l1 92 2 11 5 8 5 4 11 3h33v60l-10 4-18 4-22 3h-16l-20-3-15-5-11-6-10-8-8-11-6-11-4-14-2-14-1-14v-154l-14 1h-13l-12-1-2-5v-58l2-7 39-1 4-46 3-25 2-6 12-3 56-7z" fill="#A4EB46"/>
<path transform="translate(288,300)" d="m0 0h47l19 3 16 6 10 6 8 7 7 11 5 13 2 16-1 14-4 15-5 9-7 8-13 9-11 5-16 4-13 2-19 1h-27l-6-1v-126l1-1z" fill="#1F3000"/>
<path transform="translate(907,742)" d="m0 0h1v146h-150v-1l24-4 17-5 18-7 19-11 12-9 11-10 5-5 9-10 9-13 9-16 8-20 6-23z" fill="#FDFEFB"/>
<path transform="translate(0,742)" d="m0 0h1l6 29 7 20 11 21 14 19 6 6v2h2l5 5 10 9 21 14 17 8 18 6 20 4 12 2v1h-150z" fill="#FDFEFC"/>
<path transform="translate(761)" d="m0 0h147v147h-1l-5-25-5-17-8-18-8-14-10-14-12-13-13-11-18-12-15-8-19-7-22-5-11-2z" fill="#FDFEFC"/>
<path transform="translate(0)" d="m0 0h145v1l-24 5-16 5-17 7-15 9-16 12-15 14-13 17-9 15-7 15-6 17-4 17-2 13h-1z" fill="#FDFEFC"/>
<path transform="translate(310,301)" d="m0 0h32l12 2 16 6 10 6 8 7 7 11 5 13v9l-2-3-3-9-2-2v-3h-2l-2-6-3-1-7-8-10-9-7-3v-2l-5-1-9-3-16-2-22-1z" fill="#151B09"/>
<path transform="translate(477,413)" d="m0 0 1 3-4 12-7 14-6 9-10 10h-2l-1 3h-3l-2 5h-2l-2 4h-2v2l-7 1 6-8 11-9 12-14 8-13 8-17h2z" fill="#151C09"/>
<path transform="translate(394,388)" d="m0 0h2l-2 9-8 10-12 9-13 6-4 1h-8l3-2 8-4 6-4 7-2 1-3 8-5 8-10h2z" fill="#151B09"/>
<path transform="translate(52,844)" d="m0 0 4 2 7 5 5 3 7 4 9 5 24 12 17 6v1h-7l-18-6-19-9-16-11-11-9z" fill="#151B09"/>
<path transform="translate(393,490)" d="m0 0h4v2l-12 4-17 4-24 4-56 1-2 4-5 2v-8l60-1 12-3 22-4z" fill="#182106"/>
<path transform="translate(775,4)" d="m0 0h7l18 5 19 8 14 8 14 10 9 8h-3l-6-4-7-5-3-3-8-4-1-3-4-1-5-3-10-5-21-7-13-3z" fill="#141A0A"/>
<path transform="translate(37,58)" d="m0 0h2l-1 4-3 5-3 3-4 7-1 2h-2l-2 6-6 12-5 12-4 11h-1l1-10 9-21 9-16z" fill="#151C09"/>
<path transform="translate(585,610)" d="m0 0 6 3 7 6 16 8 10 3 4 3-10-1-10-4-6-2-6-3v-2l-5-2-6-7z" fill="#161D08"/>
<path transform="translate(12,785)" d="m0 0 3 2 3 7 2 5v3l3 1 2 7 3 1 3 6 1 3 3 1 7 11 2 4-7-6-13-18-11-21z" fill="#161E08"/>
<path transform="translate(346,501)" d="m0 0h5v2l-7 1-56 1-2 4-5 2v-8l60-1z" fill="#13170C"/>
<path transform="translate(83,20)" d="m0 0 3 1-4 3h-2v2l-5 2-7 5-3 3h-2v2l-7 4-12 11-3 2 2-4 8-8 11-9 14-10z" fill="#161E08"/>
<path transform="translate(654,395)" d="m0 0h51v1l-19 1h-20l-6 1-4 5-1 7h-1z" fill="#13170C"/>
<path transform="translate(703,625)" d="m0 0h5l-3 3-15 4-16 3h-8l4-1v-2l22-4z" fill="#182206"/>
<path transform="translate(775,4)" d="m0 0h7l18 5 19 8-4 1-14-6-17-5-9-2z" fill="#161E08"/>
<path transform="translate(427,475)" d="m0 0h2l-1 4-15 8-4-1 3-1v-2z" fill="#151C09"/>
<path transform="translate(608,626)" d="m0 0 6 1 10 3 4 3-10-1-10-4z" fill="#171F08"/>
<path transform="translate(393,490)" d="m0 0h4v2l-12 4-7 1 1-3z" fill="#171F08"/>
<path transform="translate(31,820)" d="m0 0 4 1 7 11 2 4-7-6-6-8z" fill="#151C09"/>
<path transform="translate(59,36)" d="m0 0 2 1-5 5-12 11-3 2 2-4 8-8z" fill="#182206"/>
<path transform="translate(676,631)" d="m0 0h10l-3 2-9 2h-8l4-1v-2z" fill="#171F08"/>
<path transform="translate(37,58)" d="m0 0h2l-1 4-3 5-6 5v-3z" fill="#161D08"/>
<path transform="translate(11,103)" d="m0 0h2l-2 9-3 8h-1l1-10z" fill="#161E08"/>
<path transform="translate(282,302)" d="m0 0h19v1l-14 1-5 4z" fill="#13170C"/>
<path transform="translate(576,597)" d="m0 0 4 2 4 7-1 3v-2l-3-1-4-7z" fill="#171F08"/>
<path transform="translate(397,340)" d="m0 0 2 2 1 4v9l-2-3-1-7z" fill="#182107"/>
<path transform="translate(67,30)" d="m0 0 3 1-5 5h-2v2l-3-1 5-5z" fill="#151B09"/>
</svg>
