<?xml version="1.0" encoding="UTF-8"?>
<svg version="1.1" viewBox="0 0 1480 1480" width="370" height="370" xmlns="http://www.w3.org/2000/svg">
<path transform="translate(0)" d="m0 0h1480v1480h-1480z" fill="#FAFCFC"/>
<path transform="translate(503,184)" d="m0 0h6l5 12 15 39 24 60 10 26 58 145 17 45 15 36 18 47 15 36 11 27 14 37 14 35 9 23 7 17 2 1 8-20 8-19 11-28 19-45 11-28 18-42 12-30 12-29 14-34 14-35 12-29 16-38 12-30 10-24 16-39 14-35 21-49 1-1h353l2 2v1078l-1 1-45 1h-199l-6-4-2-4-4-2-4-4v-3l-3-1-5-6-5-3-35-35-1-2-1-73v-260l1-105h-2l-2 5-10 21-10 18-14 26-10 18-15 28-12 23-10 18-14 27-12 22-15 28-12 22-12 23-4 5-2 1h-242l-5-5-12-21-12-23-13-23-14-26-12-22-15-27-17-32-13-24-12-21-16-30-10-19-15-27-13-25-5-8-2-1 4 60 3 49 1 34 3 47 2 38v10h2l1 35 4 62 2 24 2 47 1 14 1 3 3 64-6 7h-3v2l-5 1v2l-4 1-1 2-8 3-3 3-10 4-19 8-17 6-25 7-9 1v2l-12 3-31 5-13 2-44 4-38 1h-59l-2-2v-1078l3-2 54-5 207-18 61-5z" fill="#81D5E0"/>
<path transform="translate(1311,217)" d="m0 0h14l1 580v458l-1 40h-244l-6-5-5-3-4-4v-3l-3-1-7-8-37-37-1-28v-122l-1-294 10-18 9-16 6-12 10-18 7-14 10-19 13-24 12-22 12-23 12-22 12-23 10-19 8-14 6-12 18-32 7-14 10-19 12-23 13-23 12-23 6-10 7-14 12-22 34-64 12-22 14-27 9-18 1-5h-10z" fill="#008D9C"/>
<path transform="translate(155,219)" d="m0 0 4 5 8 16 30 56 18 35 12 22 13 25 10 19 13 24 12 22 10 20 12 22 17 33 10 19 15 27 21 41 15 28 12 23 12 22 12 23 12 22 9 17 2 41 2 26 3 49 5 80 2 38v10h2l1 35 4 62 2 24 2 47 1 14 1 3 3 64-6 7h-3v2l-5 1v2l-4 1-1 2-8 3-3 3-10 4-19 8-17 6-25 7-23 5-38 6-19 2-39 3h-87z" fill="#008D9C"/>
<path transform="translate(972,215)" d="m0 0h353l2 2v1078l-1 1-45 1h-199l-6-4-2-4 7 5 244 1v-1078l-4 1-1 7-19 38-12 22-30 56-18 34-7 12-6 12-12 22-13 24-10 19-12 23-7 12-6 12-12 22-6 10-6 12-10 19-17 32-15 28-17 32-10 18-13 24-7 14-10 18-6 11-7 14-10 18-4 7 1 294v122l1 28 37 37h-3l-36-36-1-2-1-73v-260l1-105h-2l-2 5-10 21-10 18-14 26-10 18-15 28-12 23-10 18-14 27-12 22-15 28-12 22-12 23-4 3-3-1-2-10-10-25-5-13-17-42-16-40-19-48-11-27-14-37-14-34-9-22 1-7 2-9 11-26 11-28 18-43 15-37 17-40 12-30 12-29 14-34 14-35 12-29 16-38 12-30 10-24 16-39 14-35 21-49z" fill="#33BDCD"/>
<path transform="translate(153,217)" d="m0 0 4 1 3 5-1 3-3-5-1 1074 87-1 51-4 28-4 27-5 4 1-12 3-31 5-13 2-44 4-38 1h-59l-2-2z" fill="#58C8D6"/>
</svg>
