<?xml version="1.0" encoding="UTF-8"?>
<svg version="1.1" viewBox="0 0 2048 2000" width="4096" height="3994" xmlns="http://www.w3.org/2000/svg">
<path transform="translate(343)" d="m0 0h1363l30 3 28 5 27 7 29 10 20 9 16 8 20 11 22 15 13 10 11 9 13 12 7 6 7 8 8 8 9 11 12 15 16 24 11 19 8 16 7 15 9 24 8 26 7 34 3 25 1 13v1311l-3 31-5 28-7 27-10 29-9 20-8 16-10 18-16 24-10 13-11 13-9 10-23 23-11 9-15 12-24 16-17 10-15 8-25 11-36 12-25 6-23 4-30 3h-1363l-31-3-28-5-27-7-29-10-20-9-16-8-18-10-24-16-13-10-13-11-10-9-23-23-9-11-12-15-16-24-11-19-8-16-7-15-9-24-8-26-7-34-3-25-1-13v-1311l3-31 5-28 7-27 10-29 9-20 8-16 10-18 16-24 10-13 9-11 12-13 22-22 11-9 15-12 24-16 17-10 17-9 26-11 33-11 25-6 23-4z" fill="#001D35"/>
<path transform="translate(652,509)" d="m0 0h117l30 2 33 4 28 5 28 7 33 11 23 10 23 12 19 12 17 13 13 11 13 12 12 13 13 17 12 18 10 18 8 17 9 25 6 22 5 27 2 16 1 14v37l-2 26-4 28-6 26-9 27-8 18-11 21-12 18-11 14-10 11-7 8-9 9-8 7-15 12-17 12-21 12-25 12-28 10-24 7-26 6-31 5-28 3-31 2h-82l-35-1v278l-3 5-4 3h-174l-4-4-1-3v-885l3-5 2-1 83-2z" fill="#31A8FE"/>
<path transform="translate(1436,720)" d="m0 0h68l38 3 38 5 24 5 26 8 18 7 5 6 1 4v149l-3 5-2 1h-10l-23-11-27-10-26-7-35-7-34-4-16-1h-34l-23 3-19 5-9 5-9 8-5 10-2 7v14l4 11 8 10 12 10 14 8 23 12 32 14 33 12 26 11 29 14 26 14 21 13 17 12 11 10 8 7 10 11 10 13 12 19 10 25 5 19 3 18 1 12v26l-2 20-4 20-5 16-8 20-9 17-9 13-9 11-9 10-11 11-11 9-14 10-15 9-16 8-19 8-24 8-25 6-32 5-21 2-17 1h-52l-39-3-35-5-30-6-26-7-26-9-19-8-6-5-3-6v-159l5-4 5 1 26 14 25 11 28 10 31 8 29 6 29 4 29 2h23l23-2 19-4 13-5 11-6 7-8 5-10 1-4v-15l-4-10-8-11-12-10-16-9-27-13-36-14-29-11-26-12-20-10-24-14-27-18-10-8-10-9-16-16-10-13-10-15-8-15-8-21-6-25-2-16v-35l3-22 5-20 8-22 12-23 10-14 9-11 11-12 14-13 15-11 18-11 22-11 21-8 23-7 31-6 24-3z" fill="#31A8FE"/>
<path transform="translate(686,675)" d="m0 0h81l25 3 26 6 21 7 19 9 13 9 14 12 11 13 7 11 9 19 5 17 3 18v34l-3 22-6 20-8 17-9 12-11 12-13 11-14 9-16 8-16 6-25 7-25 5-25 3h-96l-6-1v-286l1-1 12-1z" fill="#001D35"/>
</svg>
