<?xml version="1.0" encoding="UTF-8"?>
<svg version="1.1" viewBox="0 0 1392 1392" width="348" height="348" xmlns="http://www.w3.org/2000/svg">
<path transform="translate(0)" d="m0 0h1392v1392h-1392z" fill="#010101"/>
<path transform="translate(0)" d="m0 0h693l-4 4-25 14-15 9-21 12-26 15-22 13-23 13-52 30-21 12-22 13-23 13-21 12-26 15-22 13-21 12-52 30-29 17-56 32-26 15-22 13-70 40-1 695 5 5 22 12 22 13 18 10 17 10 21 12 17 10 56 32 22 13 26 15 28 16 48 28 49 28 48 28 23 13 24 14 25 14 13 8 24 14 23 13 24 14 26 15 14 8 5 5h-693z" fill="#FBFBFB"/>
<path transform="translate(694,348)" d="m0 0 5 1 17 10 45 26 15 9 23 13 17 10 21 12 24 14 23 13 24 14 28 16 19 11 41 24 1 2v347l-16 9-15 9-26 15-49 28-24 14-28 16-24 14-21 12-48 28-23 13-23 14-1 1h-6l-13-8-20-11-41-24-26-15-28-16-45-26-24-14-28-16-52-30-20-12-2-2v-347l9-6 25-14 24-14 14-8 24-14 49-28 15-9 23-13 71-41 24-14z" fill="#FBFBFB"/>
<path transform="translate(698)" d="m0 0h694v1392h-94v-347l-9-6-28-16-24-14-26-15-27-16-23-13-24-14-21-12-24-14-25-14-24-14-27-16-16-9v-4l17-10 26-15 15-9 28-16 23-13 41-24 28-16 24-14 21-12 24-14 26-15 24-14 1-4v-343l-9-6-52-30-24-14-21-12-24-14-28-16-26-15-22-13-18-10-17-10-26-15-24-14-21-12-52-30-22-13-25-14-17-10-28-16-27-16-25-14-17-10-28-16-24-14-22-13z" fill="#FBFBFB"/>
<path transform="translate(995,1218)" d="m0 0 5 1 24 14 21 12 15 9 23 13 17 10 23 13 24 14 28 16 24 14 26 15 24 14 26 15 15 9 5 5h-597l5-5 11-6 27-16 23-13 17-10 23-13 29-17 21-12 24-14 56-32 22-13 26-15 10-6z" fill="#FBFBFB"/>
</svg>
